<?xml version="1.0" encoding="UTF-8" standalone="no"?>
<svg
   xmlns:dc="http://purl.org/dc/elements/1.1/"
   xmlns:cc="http://creativecommons.org/ns#"
   xmlns:rdf="http://www.w3.org/1999/02/22-rdf-syntax-ns#"
   xmlns:svg="http://www.w3.org/2000/svg"
   xmlns="http://www.w3.org/2000/svg"
   viewBox="0 0 388 92"
   height="92"
   width="388"
   xml:space="preserve"
   id="svg2"
   version="1.1"><metadata
     id="metadata8"><rdf:RDF><cc:Work
         rdf:about=""><dc:format>image/svg+xml</dc:format><dc:type
           rdf:resource="http://purl.org/dc/dcmitype/StillImage" /></cc:Work></rdf:RDF></metadata><defs
     id="defs6" /><g
     transform="matrix(1.3333333,0,0,-1.3333333,0,92)"
     id="g10"><g
       transform="scale(0.1)"
       id="g12"><path
         id="path14"
         style="fill:#7f7f85;fill-opacity:1;fill-rule:evenodd;stroke:none"
         d="m 2410.59,245.512 c 0,36.636 6.17,70 18.51,100 12.31,30 28.17,57.5 47.5,82.5 18.99,25 38.63,48.468 58.99,70.508 20.35,21.64 38.51,42.808 54.49,63.468 15.66,20.672 26.33,41.332 31.99,61.992 5.66,21.02 3.36,43.008 -6.99,66.02 L 2415.59,491.02 c -22.35,-23.36 -40.16,-49.848 -53.52,-79.54 -17.3,-37.652 -25.98,-76.64 -25.98,-116.992 0.67,-53.008 13.68,-100.816 38.99,-143.468 25,-43.008 59.02,-77.1919 101.99,-102.5005 42.7,-25.3593 90.51,-38.3593 143.52,-39.03122 13.67,0.35156 27.14,1.53122 40.5,3.52342 -43,5 -80.15,15.8164 -111.52,32.5 -31.33,16.6367 -57.3,36.4766 -77.97,59.4883 -20.35,23.32 -35.51,47.34 -45.51,71.988 -10,24.692 -15.15,47.5 -15.5,68.524" /><path
         id="path16"
         style="fill:#f57f1e;fill-opacity:1;fill-rule:evenodd;stroke:none"
         d="m 2879.1,411.02 c -13.67,29.64 -31.52,56.128 -53.51,79.492 L 2650.08,666.02 c 9.33,-21.372 12.19,-43.008 8.51,-65 -3.67,-21.68 -11.52,-43.68 -23.51,-66.02 -11.64,-21.988 -25.16,-43.98 -40.51,-66.02 -15.31,-21.992 -30,-43.98 -43.98,-65.968 -13.99,-21.992 -25,-43.672 -33.01,-65 -9.34,-26.992 -13.17,-52.5 -11.49,-76.532 2,-23.98 7.35,-45.66 15.98,-65 8.67,-19.332 19.18,-35.152 31.52,-47.5 12,-12.652 23.83,-20.82 35.51,-24.492 -6.01,3.672 -12.69,13.524 -20,29.492 -7.69,16.02 -13.67,36.02 -18.01,60 -4.68,23.68 -5.15,49.18 -1.52,76.532 3.36,26.988 13.16,53.16 29.53,78.468 15.98,25.36 40.82,47.7 74.49,67.04 -16.68,-15.36 -28.82,-36.02 -36.52,-62.04 -7.66,-25.968 -10.82,-54.8 -9.49,-86.48 1.01,-31.988 6.68,-63.98 16.99,-96.02 10.35,-31.992 25.2,-61.48 44.53,-88.468 19.65,-26.9925 43.83,-49.0315 72.5,-66.0237 32.31,15.3515 60.67,35.8633 85,61.5312 24.34,25.6605 43.32,55.1525 56.99,88.4685 13.99,33.364 20.98,69.032 20.98,106.992 0,40.36 -8.48,79.34 -25.47,117.04" /><path
         id="path18"
         style="fill:#58595b;fill-opacity:1;fill-rule:nonzero;stroke:none"
         d="m 17.1484,349.691 v 41.559 c 36.5625,-13.051 76.0899,-19.531 118.5896,-19.531 60.082,0 90.16,21.953 90.16,65.941 0,37.379 -22.148,56.09 -66.41,56.09 h -49.84 c -73.1285,0 -109.6870625,31.719 -109.6870625,95.16 0,66.75 46.8007625,100.149 140.4690625,100.149 40.621,0 78.441,-4.918 113.441,-14.68 v -41.41 c -35,13.011 -72.82,19.531 -113.441,19.531 -63.5511,0 -95.3089,-21.211 -95.3089,-63.59 0,-37.43 21.4805,-56.101 64.5269,-56.101 h 49.84 c 74.383,0 111.563,-31.719 111.563,-95.149 0,-68.441 -45.11,-102.66 -135.313,-102.66 -42.4997,0 -82.0271,4.879 -118.5896,14.691 z M 527.77,344.84 c -21.168,-4.918 -43.899,-7.34 -68.282,-7.34 -92.808,0 -139.218,44.379 -139.218,133.121 0,82.188 46.41,123.289 139.218,123.289 24.383,0 47.114,-2.461 68.282,-7.351 V 549.84 c -21.168,4.89 -42.301,7.351 -63.43,7.351 -65.942,0 -98.91,-28.871 -98.91,-86.57 0,-64.371 32.968,-96.562 98.91,-96.562 21.129,0 42.262,2.421 63.43,7.351 z" /><path
         id="path20"
         style="fill:#58595b;fill-opacity:1;fill-rule:nonzero;stroke:none"
         d="m 627.621,650 h -45.1602 v 36.5586 h 45.1602 z m 0,-312.5 h -45.1602 v 256.41 h 45.1602 z" /><path
         id="path22"
         style="fill:#58595b;fill-opacity:1;fill-rule:nonzero;stroke:none"
         d="m 700.621,337.5 v 256.41 h 30.629 l 7.969,-32.82 c 31.133,21.879 62.383,32.82 93.75,32.82 59.062,0 88.59,-31.84 88.59,-95.469 V 337.5 H 876.41 v 161.559 c 0,38.132 -18.988,57.191 -56.879,57.191 -25.859,0 -50.429,-10.859 -73.75,-32.5 V 337.5 Z" /><path
         id="path24"
         style="fill:#58595b;fill-opacity:1;fill-rule:nonzero;stroke:none"
         d="m 994.57,635.309 h 28.44 l 9.69,-41.399 h 59.53 v -36.719 h -52.5 V 410 c 0,-23.98 10.35,-35.941 31.09,-35.941 h 21.41 V 337.5 h -33.13 c -43.05,0 -64.53,23.012 -64.53,69.059 z" /><path
         id="path26"
         style="fill:#58595b;fill-opacity:1;fill-rule:nonzero;stroke:none"
         d="m 1198.91,650 h -45.1602 v 36.5586 h 45.1602 z m 0,-312.5 h -45.1602 v 256.41 h 45.1602 z" /><path
         id="path28"
         style="fill:#58595b;fill-opacity:1;fill-rule:nonzero;stroke:none"
         d="m 1271.91,337.5 h 45.1602 V 686.559 H 1271.91 Z" /><path
         id="path30"
         style="fill:#58595b;fill-opacity:1;fill-rule:nonzero;stroke:none"
         d="m 1390.08,337.5 h 45.1602 V 686.559 H 1390.08 Z" /><path
         id="path32"
         style="fill:#58595b;fill-opacity:1;fill-rule:nonzero;stroke:none"
         d="m 1496.05,417.34 c 0,52.582 34.69,78.91 104.07,78.91 25.5,0 47.81,-1.68 66.87,-5 v 24.219 c 0,27.812 -23.04,41.722 -69.06,41.722 -26.37,0 -53.4,-4.07 -81.09,-12.191 v 36.719 c 27.69,8.121 54.72,12.191 81.09,12.191 76.13,0 114.22,-27.351 114.22,-82.031 V 337.5 h -22.97 l -17.97,18.121 c -22.3,-12.101 -48.55,-18.121 -78.75,-18.121 -64.3,0 -96.41,26.602 -96.41,79.84 z m 104.07,42.191 c -39.3,0 -58.91,-13.832 -58.91,-41.41 0,-29.371 17.07,-44.062 51.25,-44.062 31.25,0 56.09,6.722 74.53,20.16 v 60.472 c -17.93,3.2 -40.23,4.84 -66.87,4.84 z" /><path
         id="path34"
         style="fill:#58595b;fill-opacity:1;fill-rule:nonzero;stroke:none"
         d="m 1785.59,337.5 v 256.41 h 30.62 l 7.97,-32.82 c 31.13,21.879 62.38,32.82 93.75,32.82 59.06,0 88.59,-31.84 88.59,-95.469 V 337.5 h -45.15 v 161.559 c 0,38.132 -18.99,57.191 -56.88,57.191 -25.86,0 -50.43,-10.859 -73.75,-32.5 V 337.5 Z" /><path
         id="path36"
         style="fill:#58595b;fill-opacity:1;fill-rule:nonzero;stroke:none"
         d="m 2079.53,635.309 h 28.44 l 9.69,-41.399 h 59.53 v -36.719 h -52.5 V 410 c 0,-23.98 10.35,-35.941 31.09,-35.941 h 21.41 V 337.5 h -33.13 c -43.04,0 -64.53,23.012 -64.53,69.059 z" /><path
         id="path38"
         style="fill:#58595b;fill-opacity:1;fill-rule:nonzero;stroke:none"
         d="M 1120.43,240 1034.49,37.5 h -29.06 L 919.18,240 h 27.5 L 1020.9,64.6914 1093.24,240 Z m 126.48,-135.621 h -100.15 c 0,-30.4298 19.14,-45.629 57.5,-45.629 13.12,0 26.25,1.4102 39.37,4.2188 v -21.25 C 1230.51,38.9102 1214.57,37.5 1195.82,37.5 c -50.12,0 -75.16,25.3516 -75.16,76.09 0,48.441 23.68,72.66 71.1,72.66 45.51,0 63.9,-27.301 55.15,-81.871 z m -100.15,21.711 h 76.25 c 1.33,26.019 -10.47,39.07 -35.47,39.07 -25.43,0 -39.02,-13.051 -40.78,-39.07 z" /><path
         id="path40"
         style="fill:#58595b;fill-opacity:1;fill-rule:nonzero;stroke:none"
         d="m 1288.01,37.5 v 148.75 h 17.65 l 4.69,-19.059 c 18.01,12.688 36.13,19.059 54.38,19.059 34.25,0 51.4,-18.52 51.4,-55.469 V 37.5 h -26.25 v 93.75 c 0,22.07 -11.01,33.129 -32.97,33.129 -15,0 -29.21,-6.328 -42.65,-18.91 V 37.5 Z" /><path
         id="path42"
         style="fill:#58595b;fill-opacity:1;fill-rule:nonzero;stroke:none"
         d="m 1458.48,210.309 h 16.4 l 5.63,-24.059 h 34.53 V 165 h -30.31 V 79.5313 c 0,-13.8711 5.97,-20.7813 17.97,-20.7813 h 12.34 V 37.5 h -19.22 c -24.92,0 -37.34,13.3203 -37.34,40 z" /><path
         id="path44"
         style="fill:#58595b;fill-opacity:1;fill-rule:nonzero;stroke:none"
         d="M 1678.95,186.25 V 37.5 h -17.97 l -4.53,18.9102 C 1638.4,43.7891 1620.27,37.5 1602.07,37.5 c -34.18,0 -51.25,18.4414 -51.25,55.3086 V 186.25 h 26.25 V 92.5 c 0,-22.1094 10.94,-33.1211 32.81,-33.1211 15,0 29.26,6.2422 42.82,18.7422 V 186.25 Z" /><path
         id="path46"
         style="fill:#58595b;fill-opacity:1;fill-rule:nonzero;stroke:none"
         d="m 1721.29,37.5 v 148.75 h 17.66 l 4.68,-19.059 c 13.01,12.688 28.67,19.059 47.03,19.059 v -21.871 c -17.73,0 -32.11,-6.328 -43.12,-18.91 V 37.5 Z" /><path
         id="path48"
         style="fill:#58595b;fill-opacity:1;fill-rule:nonzero;stroke:none"
         d="m 1936.25,104.379 h -100.16 c 0,-30.4298 19.14,-45.629 57.5,-45.629 13.13,0 26.25,1.4102 39.38,4.2188 v -21.25 C 1919.84,38.9102 1903.91,37.5 1885.16,37.5 c -50.12,0 -75.16,25.3516 -75.16,76.09 0,48.441 23.67,72.66 71.09,72.66 45.51,0 63.91,-27.301 55.16,-81.871 z m -100.16,21.711 h 76.25 c 1.33,26.019 -10.46,39.07 -35.46,39.07 -25.43,0 -39.03,-13.051 -40.79,-39.07 z" /><path
         id="path50"
         style="fill:#58595b;fill-opacity:1;fill-rule:nonzero;stroke:none"
         d="m 1977.3,44.5313 v 22.6601 c 16.57,-5.6328 33.75,-8.4414 51.57,-8.4414 23.63,0 35.47,7.0703 35.47,21.25 0,13.1992 -7.78,19.8398 -23.29,19.8398 h -24.06 c -31.17,0 -46.72,14.6092 -46.72,43.9102 0,28.32 20.63,42.5 61.88,42.5 17.69,0 34.84,-2.422 51.4,-7.191 V 156.41 c -16.56,5.699 -33.71,8.59 -51.4,8.59 -24.81,0 -37.19,-7.109 -37.19,-21.25 0,-13.238 7.34,-19.84 22.03,-19.84 h 24.06 c 33.01,0 49.54,-14.648 49.54,-43.91 0,-28.3594 -20.59,-42.5 -61.72,-42.5 -17.82,0 -35,2.3398 -51.57,7.0313 z" /></g></g></svg>